<svg width="725" height="589" viewBox="0 0 725 589" fill="none" xmlns="http://www.w3.org/2000/svg">
<g clip-path="url(#clip0_4006_355)">
<path d="M692.328 359.038L692.328 359.04C691.536 360.561 690.71 362.058 689.856 363.547C657.17 420.493 581.054 456.008 452.352 437.223C415.669 431.613 389.469 439.095 368.66 453.28C347.877 467.446 332.504 488.277 317.431 509.276L317.43 509.277C316.914 510.003 316.4 510.727 315.877 511.45L315.875 511.451L315.476 512.008C299.808 533.867 284.228 555.602 262.957 570.136C241.539 584.772 214.313 592.126 175.338 584.805L175.331 584.804L175.324 584.803C92.6944 571.738 41.6841 504.649 33.7895 432.988L33.2925 433.043L33.7895 432.988C33.6935 432.118 33.6068 431.239 33.5282 430.368L33.5279 430.366C29.0933 383.91 42.7987 335.824 77.7465 299.526C98.8209 277.644 128.774 266.01 159.706 266.375C169.087 266.55 178.464 265.854 187.717 264.298L187.721 264.297C189.764 263.938 191.747 263.543 193.679 263.095C213.559 258.551 228.1 249.519 239.073 237.49C250.039 225.469 257.421 210.476 263.025 194.038L263.025 194.036C263.287 193.26 263.55 192.48 263.804 191.69C268.921 176.099 272.55 159.253 276.175 142.428C277.104 138.112 278.034 133.798 278.988 129.507C283.666 108.465 288.941 87.9621 297.756 70.4158C306.565 52.8814 318.9 38.3179 337.698 29.1315C356.503 19.9412 381.831 16.106 416.67 20.1376L416.68 20.1388L416.691 20.1396C541.434 29.3353 632.96 98.499 677.849 178.271C678.294 179.074 678.739 179.877 679.174 180.678L679.177 180.683C691.511 202.811 700.313 226.73 705.263 251.575C705.542 252.967 705.795 254.36 706.03 255.754L706.03 255.755C712.375 292.781 708.213 328.74 692.328 359.038Z" stroke="#52525B"/>
<path d="M679.614 180.44C670.652 191.091 660.553 200.732 649.499 209.192C606.436 242.217 551.892 260.127 498.083 263.884C470.43 265.828 442.641 263.94 415.505 258.275C387.897 252.491 361.564 242.304 336.062 230.405C311.258 218.829 287.189 205.776 262.551 193.877C262.814 193.099 263.076 192.321 263.329 191.535C290.194 204.465 316.509 218.715 343.689 231.034C369.296 242.645 395.803 252.115 423.524 257.182C451.184 262.204 479.412 263.31 507.379 260.467C561.04 255.068 615.627 235.271 656.881 199.853C664.627 193.203 671.788 185.902 678.286 178.028C678.732 178.832 679.177 179.636 679.614 180.44Z" fill="#818181"/>
<path d="M493.016 1.32731L493.016 1.32727C493.068 1.32395 493.12 1.3223 493.172 1.3223C493.804 1.32216 494.411 1.57277 494.858 2.01912C495.306 2.4655 495.558 3.07118 495.559 3.70323L495.559 249.614L495.559 249.616C495.561 249.94 495.495 250.26 495.366 250.558C495.238 250.855 495.049 251.122 494.812 251.343L494.809 251.345C494.571 251.57 494.289 251.743 493.981 251.854C493.673 251.965 493.345 252.011 493.018 251.989L493.016 251.988C427.063 247.858 375.398 192.806 375.398 126.658C375.398 60.5111 427.063 5.45925 493.016 1.32731ZM494.15 252.325C494.523 252.191 494.865 251.981 495.153 251.709L492.984 0.828293C426.768 4.97676 374.898 60.2475 374.898 126.658C374.898 193.069 426.768 248.34 492.984 252.487C493.38 252.514 493.777 252.459 494.15 252.325Z" stroke="#A1A1AA"/>
<path d="M506.531 123.632L506.53 123.631C506.233 123.336 505.997 122.984 505.837 122.596C505.676 122.209 505.594 121.793 505.595 121.373V121.372V3.70214H505.595L505.595 3.70019C505.593 3.26425 505.682 2.83267 505.855 2.43261C506.028 2.03256 506.282 1.67265 506.601 1.37555L506.601 1.37555L506.603 1.37391C506.924 1.07241 507.303 0.839946 507.717 0.69092C508.131 0.541891 508.571 0.47947 509.011 0.50751L509.011 0.507547C575.395 4.66629 627.399 60.0787 627.399 126.658C627.401 156.901 616.559 186.142 596.841 209.073C596.553 209.406 596.199 209.677 595.801 209.869C595.405 210.06 594.973 210.167 594.533 210.185C594.493 210.186 594.453 210.187 594.414 210.187C593.564 210.186 592.75 209.849 592.148 209.249L506.531 123.632Z" stroke="#A1A1AA"/>
<path d="M506.604 251.943L506.603 251.942C506.283 251.644 506.029 251.284 505.855 250.884C505.682 250.483 505.593 250.051 505.595 249.614V249.612V143.443C505.595 143.443 505.595 143.443 505.595 143.443C505.595 142.811 505.783 142.193 506.134 141.668C506.485 141.142 506.984 140.732 507.568 140.49C508.152 140.248 508.795 140.185 509.415 140.308C510.035 140.432 510.604 140.736 511.051 141.183C511.051 141.183 511.051 141.183 511.051 141.183L585.763 215.894C586.07 216.201 586.311 216.568 586.472 216.972C586.633 217.375 586.71 217.807 586.699 218.241C586.687 218.676 586.588 219.103 586.406 219.498C586.225 219.892 585.965 220.246 585.643 220.537C564.456 239.611 537.454 250.981 509.004 252.808L509.036 253.307L509.004 252.808C508.939 252.812 508.873 252.814 508.807 252.814C507.989 252.814 507.201 252.502 506.604 251.943Z" stroke="#A1A1AA"/>
<path d="M706.523 255.671C694.536 276.927 677.613 295.676 658.235 310.537C615.172 343.562 560.629 361.472 506.82 365.229C479.167 367.173 451.378 365.286 424.241 359.62C396.633 353.836 370.301 343.649 344.798 331.75C318.833 319.632 293.663 305.889 267.811 293.545C241.986 281.208 215.443 270.689 187.634 263.805C189.67 263.447 191.645 263.054 193.567 262.608C195.384 263.08 197.195 263.569 199.001 264.076C253.378 279.278 301.368 309.236 352.426 332.379C378.033 343.99 404.54 353.461 432.261 358.528C459.92 363.549 488.148 364.655 516.116 361.813C569.777 356.414 624.363 336.616 665.618 301.198C681.947 287.24 695.554 270.383 705.754 251.478C706.034 252.875 706.287 254.273 706.523 255.671Z" fill="#818181"/>
<path d="M166.675 442.304C220.248 457.278 267.619 486.581 317.837 509.567C317.321 510.292 316.806 511.018 316.282 511.743C315.006 511.157 313.74 510.572 312.473 509.978C286.508 497.86 261.337 484.117 235.485 471.773C209.109 459.174 181.99 448.472 153.535 441.596C114.202 432.122 73.5707 429.232 33.2925 433.043C33.1961 432.169 33.1091 431.287 33.0302 430.413C77.9308 426.175 123.228 430.205 166.675 442.304Z" fill="#818181"/>
<path d="M382 526.601H1C0.734784 526.601 0.480429 526.496 0.292892 526.308C0.105356 526.121 0 525.866 0 525.601C0 525.336 0.105356 525.082 0.292892 524.894C0.480429 524.706 0.734784 524.601 1 524.601H382C382.265 524.601 382.52 524.706 382.707 524.894C382.895 525.082 383 525.336 383 525.601C383 525.866 382.895 526.121 382.707 526.308C382.52 526.496 382.265 526.601 382 526.601Z" fill="#CCCCCC"/>
<path d="M179.18 367.136C179.18 380.424 168.408 391.197 155.119 391.197C141.831 391.197 131.058 380.424 131.058 367.136C131.058 353.847 141.831 343.075 155.119 343.075C168.408 343.075 179.18 353.847 179.18 367.136Z" stroke="#A1A1AA"/>
<path d="M200.306 543.131L246.543 540.965L247.072 552.271L201.102 560.141L200.306 543.131Z" stroke="#A1A1AA"/>
<path d="M259.524 564.127L259.515 564.128C255.761 564.375 252.021 563.471 248.794 561.537C245.901 559.691 244.296 557.18 244.17 554.487C244.17 554.487 244.17 554.487 244.17 554.487L243.397 537.982L258.268 537.286L259.524 564.127Z" stroke="#A1A1AA"/>
<path d="M263.232 513.805L257.523 560.093L246.205 560.094L246.203 513.806L263.232 513.805Z" stroke="#A1A1AA"/>
<path d="M243.078 557.091L266.722 557.09C268.677 557.09 270.614 557.475 272.42 558.223C274.226 558.971 275.867 560.067 277.249 561.45C278.632 562.832 279.728 564.473 280.476 566.279C281.224 568.085 281.609 570.021 281.609 571.976L243.079 571.978L243.078 557.091Z" stroke="#A1A1AA"/>
<path d="M129.703 548.711L129.701 548.713C127.552 550.033 124.994 550.52 122.511 550.081C120.028 549.641 117.792 548.306 116.228 546.329C114.663 544.351 113.878 541.868 114.022 539.351C114.166 536.833 115.228 534.455 117.007 532.669L117.148 532.527L117.153 532.328L119.432 437.599L141.692 436.043L131.966 532.807L131.944 533.024L132.088 533.187C133.077 534.312 133.807 535.64 134.227 537.077C134.647 538.514 134.747 540.026 134.52 541.506C134.293 542.986 133.743 544.398 132.911 545.643C132.079 546.888 130.984 547.935 129.703 548.711Z" stroke="#A1A1AA"/>
<path d="M120.836 420.123L120.846 420.089L120.85 420.054C121.282 416.672 123.037 413.6 125.73 411.51C128.424 409.42 131.836 408.484 135.219 408.906C138.602 409.328 141.68 411.075 143.777 413.763C145.874 416.451 146.82 419.86 146.407 423.245L146.402 423.281L146.403 423.318L147.033 447.486C147.033 447.486 147.033 447.486 147.033 447.486C147.049 448.106 146.931 448.722 146.687 449.292C146.443 449.863 146.08 450.374 145.621 450.791C145.161 451.209 144.618 451.522 144.027 451.71C143.436 451.898 142.811 451.957 142.195 451.882L118.046 448.939C117.43 448.864 116.838 448.657 116.309 448.332C115.781 448.008 115.328 447.573 114.983 447.058C114.637 446.542 114.407 445.959 114.307 445.346C114.208 444.734 114.241 444.108 114.406 443.509C114.406 443.509 114.406 443.509 114.406 443.509L120.836 420.123Z" stroke="#A1A1AA"/>
<path d="M138.757 562.929C135.83 562.729 133.008 561.76 130.577 560.119C128.145 558.479 126.189 556.226 124.907 553.588C123.625 550.95 123.062 548.02 123.276 545.094C123.489 542.169 124.471 539.351 126.122 536.927L141.896 520.551L199.396 469.051L230.136 443.542C231.93 442.054 234.072 441.045 236.362 440.611C238.652 440.177 241.015 440.331 243.229 441.06C245.443 441.788 247.436 443.067 249.021 444.777C250.605 446.486 251.73 448.57 252.289 450.832L268.349 515.801C268.619 516.882 268.477 518.024 267.951 519.006C267.426 519.989 266.554 520.74 265.505 521.116L247.996 527.418C247.41 527.629 246.786 527.716 246.165 527.674C245.543 527.631 244.937 527.46 244.385 527.171C243.833 526.882 243.347 526.482 242.958 525.995C242.569 525.508 242.285 524.946 242.124 524.344L235.464 499.368L198.406 534.795L209.968 539.051C211.029 539.446 211.902 540.225 212.416 541.233C212.931 542.241 213.048 543.405 212.745 544.495L209.008 557.733C208.751 558.656 208.204 559.472 207.448 560.062C206.692 560.651 205.767 560.983 204.809 561.008L138.757 562.929Z" fill="#52525B"/>
<path d="M136.165 470.436L136.162 470.348L136.13 470.266L126.536 445.9L126.536 445.9C124.604 440.996 123.766 435.73 124.083 430.469C124.399 425.208 125.862 420.08 128.367 415.444C130.873 410.808 134.362 406.775 138.59 403.628C142.818 400.481 147.682 398.297 152.843 397.227L152.843 397.227C153.631 397.063 154.417 396.904 155.201 396.748L155.201 396.748C160.152 395.766 165.253 395.83 170.177 396.937C175.101 398.045 179.738 400.171 183.791 403.178C187.844 406.186 191.223 410.009 193.709 414.4C196.196 418.792 197.736 423.656 198.229 428.679L198.23 428.683L202.729 470.423C199.154 486.325 192.204 498.616 181.517 507.656C170.825 516.702 156.351 522.527 137.67 525.422L136.165 470.436Z" stroke="#A1A1AA"/>
<path d="M184.673 435.531L199.198 425.984L210.1 443.829C210.946 445.214 211.32 446.836 211.166 448.452C211.012 450.068 210.337 451.59 209.245 452.79L171.252 494.503L171.063 494.71L171.142 494.979C171.71 496.928 171.672 499.004 171.031 500.931C170.391 502.857 169.18 504.543 167.558 505.764C165.936 506.985 163.981 507.684 161.952 507.767C159.924 507.849 157.918 507.313 156.202 506.228C154.486 505.143 153.141 503.562 152.346 501.694C151.551 499.826 151.343 497.76 151.751 495.771C152.158 493.782 153.162 491.965 154.627 490.56C156.093 489.156 157.951 488.231 159.955 487.908C160.475 487.828 161.001 487.789 161.527 487.791L161.794 487.793L161.944 487.571L189.703 446.475L189.864 446.236L189.739 445.977L184.673 435.531Z" stroke="#A1A1AA"/>
<path d="M186.994 444.95L186.994 444.949C186.44 444.795 185.927 444.523 185.488 444.152C185.049 443.781 184.695 443.319 184.451 442.799L184.451 442.799L174.851 422.355L174.835 422.322L174.814 422.291C173.057 419.646 172.421 416.412 173.044 413.298C173.667 410.184 175.5 407.444 178.14 405.679C180.78 403.914 184.013 403.268 187.128 403.882C190.244 404.496 192.989 406.321 194.762 408.956L194.782 408.985L194.806 409.011L209.974 425.844C209.974 425.844 209.974 425.844 209.974 425.844C210.359 426.271 210.647 426.776 210.819 427.324C210.991 427.873 211.043 428.452 210.971 429.022C210.899 429.592 210.705 430.141 210.402 430.629C210.099 431.118 209.694 431.535 209.216 431.853L190.284 444.429L190.284 444.429C189.806 444.747 189.264 444.959 188.696 445.049C188.128 445.138 187.548 445.105 186.994 444.95Z" stroke="#A1A1AA"/>
<path d="M480.883 386.188H399.813C398.645 386.188 397.524 385.723 396.698 384.897C395.871 384.071 395.407 382.95 395.407 381.781C395.407 380.613 395.871 379.492 396.698 378.666C397.524 377.84 398.645 377.375 399.813 377.375H480.883C482.052 377.375 483.172 377.84 483.999 378.666C484.825 379.492 485.289 380.613 485.289 381.781C485.289 382.95 484.825 384.071 483.999 384.897C483.172 385.723 482.052 386.188 480.883 386.188Z" fill="#CCCCCC"/>
<path d="M375.58 390.593C373.75 390.593 371.961 390.051 370.44 389.034C368.918 388.017 367.732 386.572 367.032 384.882C366.332 383.191 366.149 381.331 366.506 379.536C366.863 377.741 367.744 376.092 369.038 374.798C370.332 373.504 371.98 372.623 373.775 372.266C375.57 371.909 377.43 372.092 379.121 372.793C380.812 373.493 382.257 374.679 383.274 376.201C384.29 377.722 384.833 379.511 384.833 381.341C384.83 383.794 383.854 386.146 382.12 387.88C380.385 389.615 378.033 390.591 375.58 390.593Z" fill="#A1A1AA"/>
<path d="M480.883 412.623H399.813C398.645 412.623 397.524 412.159 396.698 411.333C395.871 410.506 395.407 409.386 395.407 408.217C395.407 407.048 395.871 405.928 396.698 405.102C397.524 404.275 398.645 403.811 399.813 403.811H480.883C482.052 403.811 483.172 404.275 483.999 405.102C484.825 405.928 485.289 407.048 485.289 408.217C485.289 409.386 484.825 410.506 483.999 411.333C483.172 412.159 482.052 412.623 480.883 412.623Z" fill="#CCCCCC"/>
<path d="M375.58 417.029C373.75 417.029 371.961 416.486 370.44 415.47C368.918 414.453 367.732 413.008 367.032 411.317C366.332 409.627 366.148 407.766 366.505 405.971C366.862 404.177 367.744 402.528 369.038 401.234C370.332 399.94 371.98 399.059 373.775 398.702C375.57 398.345 377.43 398.528 379.121 399.228C380.812 399.929 382.257 401.114 383.273 402.636C384.29 404.158 384.833 405.947 384.833 407.776C384.83 410.23 383.854 412.581 382.12 414.316C380.385 416.051 378.033 417.026 375.58 417.029Z" fill="#A1A1AA"/>
<path d="M480.883 439.059H399.813C398.645 439.059 397.524 438.595 396.698 437.769C395.871 436.942 395.407 435.822 395.407 434.653C395.407 433.485 395.871 432.364 396.698 431.538C397.524 430.711 398.645 430.247 399.813 430.247H480.883C482.052 430.247 483.172 430.711 483.999 431.538C484.825 432.364 485.289 433.485 485.289 434.653C485.289 435.822 484.825 436.942 483.999 437.769C483.172 438.595 482.052 439.059 480.883 439.059Z" fill="#CCCCCC"/>
<path d="M375.58 443.465C373.75 443.465 371.961 442.922 370.44 441.906C368.918 440.889 367.732 439.444 367.032 437.753C366.332 436.063 366.149 434.202 366.506 432.407C366.863 430.613 367.744 428.964 369.038 427.67C370.332 426.376 371.98 425.495 373.775 425.138C375.57 424.781 377.43 424.964 379.121 425.664C380.812 426.365 382.257 427.55 383.274 429.072C384.29 430.594 384.833 432.383 384.833 434.213C384.83 436.666 383.854 439.017 382.12 440.752C380.385 442.487 378.033 443.462 375.58 443.465Z" fill="#A1A1AA"/>
<path d="M504.175 408.098H537.661C537.895 408.098 538.119 408.005 538.284 407.84C538.449 407.675 538.542 407.451 538.542 407.217V200.206C538.542 199.972 538.449 199.748 538.284 199.583C538.119 199.418 537.895 199.325 537.661 199.325C537.427 199.325 537.203 199.418 537.038 199.583C536.873 199.748 536.78 199.972 536.78 200.206V406.336H504.175C504.06 406.335 503.945 406.358 503.837 406.402C503.73 406.446 503.633 406.511 503.55 406.593C503.468 406.675 503.403 406.772 503.359 406.879C503.314 406.986 503.291 407.101 503.291 407.217C503.291 407.333 503.314 407.448 503.359 407.555C503.403 407.662 503.468 407.759 503.55 407.841C503.633 407.923 503.73 407.988 503.837 408.032C503.945 408.076 504.06 408.099 504.175 408.098Z" fill="#A1A1AA"/>
<path d="M647.661 64.9062C645.422 65.0866 643.18 64.5989 641.218 63.505C639.256 62.411 637.663 60.7598 636.639 58.7601C635.616 56.7605 635.208 54.5023 635.468 52.2711C635.728 50.0398 636.644 47.9358 638.099 46.2249C639.555 44.5141 641.485 43.2734 643.646 42.6597C645.807 42.0459 648.101 42.0868 650.239 42.777C652.377 43.4672 654.262 44.7758 655.656 46.5373C657.05 48.2988 657.89 50.4341 658.07 52.6732C658.312 55.6757 657.351 58.6513 655.399 60.9455C653.447 63.2396 650.664 64.6643 647.661 64.9062ZM647.521 63.1645C649.416 63.0119 651.222 62.3009 652.713 61.1214C654.203 59.9419 655.311 58.3469 655.895 56.5381C656.479 54.7293 656.513 52.788 655.994 50.9595C655.475 49.1311 654.425 47.4977 652.977 46.266C651.53 45.0342 649.749 44.2594 647.861 44.0394C645.973 43.8195 644.063 44.1643 642.371 45.0304C640.679 45.8964 639.281 47.2448 638.356 48.9049C637.43 50.565 637.017 52.4623 637.17 54.3569C637.271 55.6149 637.619 56.8406 638.195 57.964C638.77 59.0874 639.56 60.0866 640.521 60.9045C641.483 61.7224 642.595 62.3429 643.796 62.7307C644.997 63.1185 646.263 63.2659 647.521 63.1645Z" fill="#CCCCCC"/>
<path d="M686.77 35.7629C690.63 35.7629 693.76 32.6336 693.76 28.7735C693.76 24.9134 690.63 21.7842 686.77 21.7842C682.91 21.7842 679.781 24.9134 679.781 28.7735C679.781 32.6336 682.91 35.7629 686.77 35.7629Z" fill="#CCCCCC"/>
<path d="M721.125 10.4864C723.153 10.4864 724.797 8.84266 724.797 6.81498C724.797 4.78731 723.153 3.14355 721.125 3.14355C719.098 3.14355 717.454 4.78731 717.454 6.81498C717.454 8.84266 719.098 10.4864 721.125 10.4864Z" fill="#CCCCCC"/>
<path d="M594.295 288.46C593.056 290.334 591.29 291.799 589.219 292.67C587.148 293.54 584.866 293.777 582.66 293.35C580.455 292.923 578.426 291.852 576.829 290.271C575.233 288.691 574.14 286.673 573.691 284.472C573.241 282.271 573.454 279.986 574.303 277.907C575.152 275.827 576.599 274.046 578.46 272.788C580.322 271.53 582.514 270.853 584.76 270.841C587.007 270.83 589.206 271.485 591.08 272.723C593.59 274.386 595.339 276.977 595.942 279.927C596.544 282.877 595.952 285.946 594.295 288.46ZM576.801 276.901C575.753 278.487 575.199 280.348 575.209 282.248C575.218 284.149 575.791 286.004 576.856 287.579C577.92 289.154 579.427 290.378 581.187 291.097C582.947 291.815 584.88 291.995 586.742 291.615C588.604 291.234 590.312 290.31 591.649 288.959C592.986 287.609 593.893 285.891 594.254 284.025C594.615 282.159 594.415 280.228 593.678 278.476C592.942 276.723 591.703 275.229 590.117 274.181C587.989 272.779 585.393 272.278 582.896 272.788C580.4 273.297 578.208 274.777 576.801 276.901Z" fill="#CCCCCC"/>
<path d="M607.901 330.231C611.761 330.231 614.89 327.101 614.89 323.241C614.89 319.381 611.761 316.252 607.901 316.252C604.041 316.252 600.912 319.381 600.912 323.241C600.912 327.101 604.041 330.231 607.901 330.231Z" fill="#CCCCCC"/>
<path d="M627.397 362.723C629.425 362.723 631.068 361.079 631.068 359.051C631.068 357.024 629.425 355.38 627.397 355.38C625.369 355.38 623.726 357.024 623.726 359.051C623.726 361.079 625.369 362.723 627.397 362.723Z" fill="#CCCCCC"/>
<path d="M312.278 97.706C311.278 95.6943 310.897 93.4315 311.184 91.2035C311.47 88.9755 312.411 86.8824 313.887 85.189C315.363 83.4956 317.308 82.278 319.476 81.69C321.644 81.1019 323.937 81.1701 326.067 81.8856C328.196 82.6012 330.065 83.9321 331.438 85.7101C332.811 87.4881 333.626 89.6332 333.78 91.8743C333.933 94.1153 333.419 96.3517 332.302 98.3005C331.185 100.249 329.515 101.823 327.503 102.823C324.805 104.16 321.687 104.372 318.832 103.413C315.978 102.453 313.621 100.401 312.278 97.706ZM331.055 88.3748C330.209 86.6727 328.877 85.2595 327.228 84.3142C325.579 83.3688 323.687 82.9337 321.791 83.0638C319.895 83.1939 318.08 83.8833 316.575 85.045C315.071 86.2067 313.944 87.7884 313.339 89.5902C312.733 91.3919 312.676 93.3327 313.173 95.1672C313.671 97.0017 314.701 98.6474 316.134 99.8963C317.567 101.145 319.338 101.941 321.223 102.183C323.109 102.426 325.023 102.104 326.725 101.258C329.006 100.121 330.742 98.1267 331.554 95.7116C332.366 93.2964 332.186 90.6578 331.055 88.3748Z" fill="#CCCCCC"/>
<path d="M275.365 99.0109C279.225 99.0109 282.354 95.8817 282.354 92.0216C282.354 88.1615 279.225 85.0322 275.365 85.0322C271.505 85.0322 268.376 88.1615 268.376 92.0216C268.376 95.8817 271.505 99.0109 275.365 99.0109Z" fill="#CCCCCC"/>
<path d="M234.607 94.586C236.635 94.586 238.278 92.9423 238.278 90.9146C238.278 88.8869 236.635 87.2432 234.607 87.2432C232.579 87.2432 230.935 88.8869 230.935 90.9146C230.935 92.9423 232.579 94.586 234.607 94.586Z" fill="#CCCCCC"/>
<mask id="path-36-inside-1_4006_355" fill="white">
<path d="M181.075 369.284L180.051 366.675C177.227 359.477 170.473 353.943 163.245 352.906C159.639 352.434 155.973 352.996 152.673 354.526C149.374 356.055 146.577 358.49 144.607 361.548C142.935 364.448 141.615 367.537 140.675 370.75C140.353 371.707 140.028 372.399 139.404 372.608C138.702 372.861 138.003 372.428 136.845 371.71C136.587 371.55 136.288 371.467 135.984 371.471C135.681 371.474 135.384 371.563 135.129 371.729C134.874 371.894 134.672 372.129 134.545 372.405C134.419 372.681 134.374 372.988 134.415 373.289L135.629 381.958L134.613 381.054C128 375.168 126.642 364.093 131.419 357.066L120.547 359.299L121.037 358.365C125.552 349.65 133.334 343.078 142.681 340.085L132.268 337.792L133.321 337.143C142.646 331.399 154.948 331.561 164.66 337.546C169.538 340.671 173.578 344.941 176.429 349.984C179.28 355.027 180.854 360.691 181.016 366.482L181.075 369.284Z"/>
</mask>
<path d="M181.075 369.284L180.051 366.675C177.227 359.477 170.473 353.943 163.245 352.906C159.639 352.434 155.973 352.996 152.673 354.526C149.374 356.055 146.577 358.49 144.607 361.548C142.935 364.448 141.615 367.537 140.675 370.75C140.353 371.707 140.028 372.399 139.404 372.608C138.702 372.861 138.003 372.428 136.845 371.71C136.587 371.55 136.288 371.467 135.984 371.471C135.681 371.474 135.384 371.563 135.129 371.729C134.874 371.894 134.672 372.129 134.545 372.405C134.419 372.681 134.374 372.988 134.415 373.289L135.629 381.958L134.613 381.054C128 375.168 126.642 364.093 131.419 357.066L120.547 359.299L121.037 358.365C125.552 349.65 133.334 343.078 142.681 340.085L132.268 337.792L133.321 337.143C142.646 331.399 154.948 331.561 164.66 337.546C169.538 340.671 173.578 344.941 176.429 349.984C179.28 355.027 180.854 360.691 181.016 366.482L181.075 369.284Z" fill="#52525B"/>
<path d="M181.075 369.284L180.144 369.65L182.074 369.264L181.075 369.284ZM180.051 366.675L179.12 367.04L179.12 367.04L180.051 366.675ZM163.245 352.906L163.387 351.916L163.375 351.914L163.245 352.906ZM144.607 361.548L143.766 361.006L143.753 361.027L143.74 361.048L144.607 361.548ZM140.675 370.75L141.623 371.069L141.629 371.05L141.635 371.031L140.675 370.75ZM139.404 372.608L139.086 371.66L139.076 371.664L139.066 371.667L139.404 372.608ZM136.845 371.71L137.372 370.86L137.371 370.86L136.845 371.71ZM134.415 373.289L133.424 373.424L133.424 373.427L134.415 373.289ZM135.629 381.958L134.964 382.705L136.997 384.514L136.619 381.82L135.629 381.958ZM134.613 381.054L133.948 381.801L133.948 381.801L134.613 381.054ZM131.419 357.066L132.246 357.628L133.631 355.59L131.217 356.086L131.419 357.066ZM120.547 359.299L119.661 358.835L118.682 360.703L120.748 360.279L120.547 359.299ZM121.037 358.365L121.923 358.829L121.925 358.825L121.037 358.365ZM142.681 340.085L142.986 341.038L146.519 339.906L142.896 339.109L142.681 340.085ZM132.268 337.792L131.743 336.941L129.64 338.237L132.053 338.769L132.268 337.792ZM133.321 337.143L132.796 336.292L132.796 336.292L133.321 337.143ZM164.66 337.546L165.2 336.704L165.192 336.699L165.185 336.695L164.66 337.546ZM181.016 366.482L182.016 366.461L182.016 366.454L181.016 366.482ZM182.006 368.919L180.982 366.31L179.12 367.04L180.144 369.65L182.006 368.919ZM180.982 366.31C178.036 358.801 170.996 353.008 163.387 351.916L163.103 353.896C169.949 354.878 176.418 360.152 179.12 367.04L180.982 366.31ZM163.375 351.914C159.581 351.418 155.724 352.009 152.253 353.618L153.094 355.433C156.222 353.983 159.697 353.45 163.115 353.898L163.375 351.914ZM152.253 353.618C148.782 355.228 145.839 357.79 143.766 361.006L145.447 362.089C147.315 359.191 149.966 356.883 153.094 355.433L152.253 353.618ZM143.74 361.048C142.029 364.017 140.678 367.18 139.715 370.469L141.635 371.031C142.552 367.894 143.841 364.878 145.473 362.047L143.74 361.048ZM139.727 370.431C139.569 370.9 139.438 371.216 139.305 371.429C139.181 371.627 139.107 371.653 139.086 371.66L139.722 373.556C140.325 373.354 140.725 372.93 141 372.49C141.266 372.065 141.458 371.557 141.623 371.069L139.727 370.431ZM139.066 371.667C139.03 371.68 138.949 371.71 138.674 371.598C138.362 371.47 137.978 371.236 137.372 370.86L136.318 372.56C136.87 372.903 137.415 373.244 137.917 373.449C138.456 373.669 139.076 373.789 139.743 373.549L139.066 371.667ZM137.371 370.86C136.952 370.6 136.467 370.465 135.974 370.471L135.995 372.47C136.109 372.469 136.221 372.501 136.318 372.561L137.371 370.86ZM135.974 370.471C135.48 370.476 134.998 370.621 134.585 370.89L135.674 372.568C135.77 372.505 135.881 372.472 135.995 372.47L135.974 370.471ZM134.585 370.89C134.171 371.159 133.842 371.54 133.636 371.989L135.455 372.822C135.502 372.718 135.578 372.63 135.674 372.568L134.585 370.89ZM133.636 371.989C133.431 372.437 133.357 372.935 133.424 373.424L135.405 373.154C135.39 373.04 135.407 372.925 135.455 372.822L133.636 371.989ZM133.424 373.427L134.639 382.097L136.619 381.82L135.405 373.15L133.424 373.427ZM136.294 381.211L135.278 380.307L133.948 381.801L134.964 382.705L136.294 381.211ZM135.278 380.307C129.032 374.748 127.757 364.231 132.246 357.628L130.592 356.504C125.527 363.954 126.968 375.588 133.948 381.801L135.278 380.307ZM131.217 356.086L120.346 358.32L120.748 360.279L131.62 358.045L131.217 356.086ZM121.433 359.764L121.923 358.829L120.151 357.901L119.661 358.835L121.433 359.764ZM121.925 358.825C126.318 350.345 133.891 343.95 142.986 341.038L142.376 339.133C132.777 342.206 124.786 348.955 120.149 357.905L121.925 358.825ZM142.896 339.109L132.483 336.815L132.053 338.769L142.466 341.062L142.896 339.109ZM132.793 338.643L133.845 337.995L132.796 336.292L131.743 336.941L132.793 338.643ZM133.845 337.995C142.832 332.459 154.728 332.599 164.136 338.398L165.185 336.695C155.168 330.522 142.46 330.339 132.796 336.292L133.845 337.995ZM164.121 338.388C168.861 341.425 172.788 345.575 175.558 350.476L177.3 349.492C174.369 344.307 170.215 339.917 165.2 336.704L164.121 338.388ZM175.558 350.476C178.329 355.378 179.859 360.882 180.017 366.509L182.016 366.454C181.849 360.5 180.23 354.677 177.3 349.492L175.558 350.476ZM180.016 366.502L180.075 369.305L182.074 369.264L182.016 366.461L180.016 366.502Z" fill="#A1A1AA" mask="url(#path-36-inside-1_4006_355)"/>
</g>
<defs>
<clipPath id="clip0_4006_355">
<rect width="724.797" height="588.172" fill="white"/>
</clipPath>
</defs>
</svg>
